<mxfile host="app.diagrams.net" modified="2020-05-12T07:38:13.629Z" agent="5.0 (Windows)" etag="4otZqUn9rZQ-kHQsr7hI" version="13.0.6" type="github">
  <diagram id="hyMBlP3Ab5VuCvEYyF4_" name="Page-1">
    <mxGraphModel dx="1994" dy="2626" grid="1" gridSize="10" guides="1" tooltips="1" connect="1" arrows="1" fold="1" page="1" pageScale="1" pageWidth="850" pageHeight="1100" math="0" shadow="0">
      <root>
        <mxCell id="0" />
        <mxCell id="1" parent="0" />
        <mxCell id="mvTbUv54LLQ37Vtnu26t-1" value="" style="group" vertex="1" connectable="0" parent="1">
          <mxGeometry x="940" y="120" width="200" height="390" as="geometry" />
        </mxCell>
        <mxCell id="mvTbUv54LLQ37Vtnu26t-2" value="" style="group" vertex="1" connectable="0" parent="mvTbUv54LLQ37Vtnu26t-1">
          <mxGeometry width="200" height="390" as="geometry" />
        </mxCell>
        <mxCell id="mvTbUv54LLQ37Vtnu26t-3" value="" style="verticalLabelPosition=bottom;verticalAlign=top;html=1;shadow=0;dashed=0;strokeWidth=1;shape=mxgraph.android.phone2;strokeColor=#c0c0c0;rounded=0;comic=0;fillColor=none;gradientColor=#ffffff;" vertex="1" parent="mvTbUv54LLQ37Vtnu26t-2">
          <mxGeometry width="200" height="390" as="geometry" />
        </mxCell>
        <mxCell id="mvTbUv54LLQ37Vtnu26t-4" value="&lt;div style=&quot;font-size: 28px&quot;&gt;Bingo&lt;/div&gt;&lt;div style=&quot;font-size: 28px&quot;&gt;&lt;font style=&quot;font-size: 28px&quot;&gt;Splash &lt;br&gt;&lt;/font&gt;&lt;/div&gt;&lt;div style=&quot;font-size: 28px&quot;&gt;&lt;font style=&quot;font-size: 28px&quot;&gt;Screen&lt;br&gt;&lt;/font&gt;&lt;/div&gt;" style="text;html=1;align=center;verticalAlign=middle;resizable=0;points=[];autosize=1;strokeWidth=7;" vertex="1" parent="mvTbUv54LLQ37Vtnu26t-2">
          <mxGeometry x="50" y="170" width="100" height="50" as="geometry" />
        </mxCell>
        <mxCell id="mvTbUv54LLQ37Vtnu26t-70" style="edgeStyle=orthogonalEdgeStyle;rounded=0;orthogonalLoop=1;jettySize=auto;html=1;" edge="1" parent="1" source="mvTbUv54LLQ37Vtnu26t-5" target="mvTbUv54LLQ37Vtnu26t-21">
          <mxGeometry relative="1" as="geometry" />
        </mxCell>
        <mxCell id="mvTbUv54LLQ37Vtnu26t-5" value="" style="verticalLabelPosition=bottom;verticalAlign=top;html=1;shadow=0;dashed=0;strokeWidth=1;shape=mxgraph.android.phone2;strokeColor=#c0c0c0;" vertex="1" parent="1">
          <mxGeometry x="1260" y="120" width="200" height="390" as="geometry" />
        </mxCell>
        <mxCell id="mvTbUv54LLQ37Vtnu26t-6" value="MSISDN" style="rounded=0;whiteSpace=wrap;html=1;" vertex="1" parent="1">
          <mxGeometry x="1290" y="320" width="140" height="30" as="geometry" />
        </mxCell>
        <mxCell id="mvTbUv54LLQ37Vtnu26t-7" value="&lt;b&gt;&lt;font style=&quot;font-size: 12px&quot;&gt;Next&lt;/font&gt;&lt;/b&gt;" style="rounded=1;html=1;shadow=0;dashed=0;whiteSpace=wrap;fontSize=10;fillColor=#d5e8d4;align=center;strokeColor=#82b366;" vertex="1" parent="1">
          <mxGeometry x="1307" y="390" width="105.5" height="16.88" as="geometry" />
        </mxCell>
        <mxCell id="mvTbUv54LLQ37Vtnu26t-8" value="Country Selector" style="strokeWidth=1;html=1;shadow=0;dashed=0;shape=mxgraph.android.spinner2;align=center;fillColor=#999999;strokeColor=#999999;verticalAlign=bottom" vertex="1" parent="1">
          <mxGeometry x="1305" y="270" width="110" height="10" as="geometry" />
        </mxCell>
        <mxCell id="mvTbUv54LLQ37Vtnu26t-16" style="edgeStyle=orthogonalEdgeStyle;rounded=0;orthogonalLoop=1;jettySize=auto;html=1;entryX=0;entryY=0.705;entryDx=0;entryDy=0;entryPerimeter=0;" edge="1" parent="1" source="mvTbUv54LLQ37Vtnu26t-9" target="mvTbUv54LLQ37Vtnu26t-14">
          <mxGeometry relative="1" as="geometry">
            <Array as="points">
              <mxPoint x="1310" y="875" />
            </Array>
          </mxGeometry>
        </mxCell>
        <mxCell id="mvTbUv54LLQ37Vtnu26t-9" value="" style="shape=image;html=1;verticalAlign=top;verticalLabelPosition=bottom;labelBackgroundColor=#ffffff;imageAspect=0;aspect=fixed;image=https://cdn1.iconfinder.com/data/icons/logotypes/32/circle-facebook_-128.png" vertex="1" parent="1">
          <mxGeometry x="1296" y="422" width="28" height="28" as="geometry" />
        </mxCell>
        <mxCell id="mvTbUv54LLQ37Vtnu26t-17" style="edgeStyle=orthogonalEdgeStyle;rounded=0;orthogonalLoop=1;jettySize=auto;html=1;entryX=0;entryY=0.592;entryDx=0;entryDy=0;entryPerimeter=0;" edge="1" parent="1" source="mvTbUv54LLQ37Vtnu26t-10" target="mvTbUv54LLQ37Vtnu26t-14">
          <mxGeometry relative="1" as="geometry">
            <Array as="points">
              <mxPoint x="1355" y="831" />
            </Array>
          </mxGeometry>
        </mxCell>
        <mxCell id="mvTbUv54LLQ37Vtnu26t-10" value="" style="shape=image;html=1;verticalAlign=top;verticalLabelPosition=bottom;labelBackgroundColor=#ffffff;imageAspect=0;aspect=fixed;image=https://cdn3.iconfinder.com/data/icons/peelicons-vol-1/50/Google_-128.png" vertex="1" parent="1">
          <mxGeometry x="1341" y="422" width="28" height="28" as="geometry" />
        </mxCell>
        <mxCell id="mvTbUv54LLQ37Vtnu26t-18" style="edgeStyle=orthogonalEdgeStyle;rounded=0;orthogonalLoop=1;jettySize=auto;html=1;entryX=0;entryY=0.523;entryDx=0;entryDy=0;entryPerimeter=0;" edge="1" parent="1" source="mvTbUv54LLQ37Vtnu26t-11" target="mvTbUv54LLQ37Vtnu26t-14">
          <mxGeometry relative="1" as="geometry">
            <Array as="points">
              <mxPoint x="1399" y="804" />
            </Array>
          </mxGeometry>
        </mxCell>
        <mxCell id="mvTbUv54LLQ37Vtnu26t-11" value="" style="shape=image;html=1;verticalAlign=top;verticalLabelPosition=bottom;labelBackgroundColor=#ffffff;imageAspect=0;aspect=fixed;image=https://cdn3.iconfinder.com/data/icons/peelicons-vol-1/50/Mail-128.png" vertex="1" parent="1">
          <mxGeometry x="1384.5" y="422" width="28" height="28" as="geometry" />
        </mxCell>
        <mxCell id="mvTbUv54LLQ37Vtnu26t-12" style="edgeStyle=orthogonalEdgeStyle;rounded=0;orthogonalLoop=1;jettySize=auto;html=1;entryX=-0.02;entryY=0.5;entryDx=0;entryDy=0;entryPerimeter=0;" edge="1" parent="1" source="mvTbUv54LLQ37Vtnu26t-3" target="mvTbUv54LLQ37Vtnu26t-5">
          <mxGeometry relative="1" as="geometry" />
        </mxCell>
        <mxCell id="mvTbUv54LLQ37Vtnu26t-13" value="" style="group" vertex="1" connectable="0" parent="1">
          <mxGeometry x="1560" y="600" width="200" height="390" as="geometry" />
        </mxCell>
        <mxCell id="mvTbUv54LLQ37Vtnu26t-14" value="" style="verticalLabelPosition=bottom;verticalAlign=top;html=1;shadow=0;dashed=0;strokeWidth=1;shape=mxgraph.android.phone2;strokeColor=#c0c0c0;rounded=0;comic=0;fillColor=none;gradientColor=#ffffff;" vertex="1" parent="mvTbUv54LLQ37Vtnu26t-13">
          <mxGeometry width="200" height="390" as="geometry" />
        </mxCell>
        <mxCell id="mvTbUv54LLQ37Vtnu26t-15" value="&lt;div style=&quot;font-size: 24px&quot;&gt;&lt;font style=&quot;font-size: 24px&quot;&gt;Alternative&lt;/font&gt;&lt;/div&gt;&lt;div style=&quot;font-size: 24px&quot;&gt;&lt;font style=&quot;font-size: 24px&quot;&gt;Login&lt;/font&gt;&lt;/div&gt;&lt;div style=&quot;font-size: 24px&quot;&gt;&lt;font style=&quot;font-size: 24px&quot;&gt;Options&lt;br&gt;&lt;/font&gt;&lt;/div&gt;" style="text;html=1;align=center;verticalAlign=middle;resizable=0;points=[];autosize=1;strokeWidth=7;" vertex="1" parent="mvTbUv54LLQ37Vtnu26t-13">
          <mxGeometry x="35" y="170" width="130" height="50" as="geometry" />
        </mxCell>
        <mxCell id="mvTbUv54LLQ37Vtnu26t-19" value="" style="group" vertex="1" connectable="0" parent="1">
          <mxGeometry x="1570" y="120" width="200" height="390" as="geometry" />
        </mxCell>
        <mxCell id="mvTbUv54LLQ37Vtnu26t-20" value="" style="group" vertex="1" connectable="0" parent="mvTbUv54LLQ37Vtnu26t-19">
          <mxGeometry width="200" height="390" as="geometry" />
        </mxCell>
        <mxCell id="mvTbUv54LLQ37Vtnu26t-21" value="" style="verticalLabelPosition=bottom;verticalAlign=top;html=1;shadow=0;dashed=0;strokeWidth=1;shape=mxgraph.android.phone2;strokeColor=#c0c0c0;" vertex="1" parent="mvTbUv54LLQ37Vtnu26t-20">
          <mxGeometry width="200" height="390" as="geometry" />
        </mxCell>
        <mxCell id="mvTbUv54LLQ37Vtnu26t-22" value="SMS CODE" style="rounded=0;whiteSpace=wrap;html=1;" vertex="1" parent="mvTbUv54LLQ37Vtnu26t-20">
          <mxGeometry x="30" y="178.44000000000005" width="140" height="30" as="geometry" />
        </mxCell>
        <mxCell id="mvTbUv54LLQ37Vtnu26t-23" value="Next" style="rounded=1;html=1;shadow=0;dashed=0;whiteSpace=wrap;fontSize=10;fillColor=#d5e8d4;align=center;strokeColor=#82b366;" vertex="1" parent="mvTbUv54LLQ37Vtnu26t-20">
          <mxGeometry x="47.25" y="266.88" width="105.5" height="16.88" as="geometry" />
        </mxCell>
        <mxCell id="mvTbUv54LLQ37Vtnu26t-25" value="" style="group" vertex="1" connectable="0" parent="1">
          <mxGeometry x="1920" y="120" width="200" height="390" as="geometry" />
        </mxCell>
        <mxCell id="mvTbUv54LLQ37Vtnu26t-26" value="" style="group" vertex="1" connectable="0" parent="mvTbUv54LLQ37Vtnu26t-25">
          <mxGeometry width="200" height="390" as="geometry" />
        </mxCell>
        <mxCell id="mvTbUv54LLQ37Vtnu26t-27" value="" style="group" vertex="1" connectable="0" parent="mvTbUv54LLQ37Vtnu26t-26">
          <mxGeometry width="200" height="390" as="geometry" />
        </mxCell>
        <mxCell id="mvTbUv54LLQ37Vtnu26t-28" value="" style="group" vertex="1" connectable="0" parent="mvTbUv54LLQ37Vtnu26t-27">
          <mxGeometry width="200" height="390" as="geometry" />
        </mxCell>
        <mxCell id="mvTbUv54LLQ37Vtnu26t-29" value="" style="verticalLabelPosition=bottom;verticalAlign=top;html=1;shadow=0;dashed=0;strokeWidth=1;shape=mxgraph.android.phone2;strokeColor=#c0c0c0;" vertex="1" parent="mvTbUv54LLQ37Vtnu26t-28">
          <mxGeometry width="200" height="390" as="geometry" />
        </mxCell>
        <mxCell id="mvTbUv54LLQ37Vtnu26t-30" value="&lt;div style=&quot;font-size: 12px&quot;&gt;&lt;b&gt;&lt;font style=&quot;font-size: 12px&quot;&gt;Next&lt;/font&gt;&lt;/b&gt;&lt;/div&gt;" style="rounded=1;html=1;shadow=0;dashed=0;whiteSpace=wrap;fontSize=10;fillColor=#d5e8d4;align=center;strokeColor=#82b366;" vertex="1" parent="mvTbUv54LLQ37Vtnu26t-28">
          <mxGeometry x="50" y="310" width="105.5" height="16.88" as="geometry" />
        </mxCell>
        <mxCell id="mvTbUv54LLQ37Vtnu26t-31" value="Enter User Name" style="rounded=0;whiteSpace=wrap;html=1;" vertex="1" parent="mvTbUv54LLQ37Vtnu26t-28">
          <mxGeometry x="32.75" y="150" width="140" height="30" as="geometry" />
        </mxCell>
        <mxCell id="mvTbUv54LLQ37Vtnu26t-34" style="edgeStyle=orthogonalEdgeStyle;rounded=0;orthogonalLoop=1;jettySize=auto;html=1;entryX=0;entryY=0.499;entryDx=0;entryDy=0;entryPerimeter=0;" edge="1" parent="1" source="mvTbUv54LLQ37Vtnu26t-21" target="mvTbUv54LLQ37Vtnu26t-29">
          <mxGeometry relative="1" as="geometry" />
        </mxCell>
        <mxCell id="mvTbUv54LLQ37Vtnu26t-35" value="" style="group" vertex="1" connectable="0" parent="1">
          <mxGeometry x="2400" y="120.00000000000006" width="200" height="390" as="geometry" />
        </mxCell>
        <mxCell id="mvTbUv54LLQ37Vtnu26t-36" value="" style="group" vertex="1" connectable="0" parent="mvTbUv54LLQ37Vtnu26t-35">
          <mxGeometry width="200" height="390" as="geometry" />
        </mxCell>
        <mxCell id="mvTbUv54LLQ37Vtnu26t-37" value="" style="verticalLabelPosition=bottom;verticalAlign=top;html=1;shadow=0;dashed=0;strokeWidth=1;shape=mxgraph.android.phone2;strokeColor=#c0c0c0;rounded=0;comic=0;fillColor=none;gradientColor=#ffffff;" vertex="1" parent="mvTbUv54LLQ37Vtnu26t-36">
          <mxGeometry width="200" height="390" as="geometry" />
        </mxCell>
        <mxCell id="mvTbUv54LLQ37Vtnu26t-38" value="&lt;div style=&quot;font-size: 20px&quot;&gt;User Name&lt;br&gt;&lt;/div&gt;" style="text;html=1;align=center;verticalAlign=middle;resizable=0;points=[];autosize=1;strokeWidth=7;" vertex="1" parent="mvTbUv54LLQ37Vtnu26t-36">
          <mxGeometry x="40" y="140" width="120" height="20" as="geometry" />
        </mxCell>
        <mxCell id="mvTbUv54LLQ37Vtnu26t-39" value="Shake to Win" style="rounded=1;html=1;shadow=0;dashed=0;whiteSpace=wrap;fontSize=10;fillColor=#d5e8d4;align=center;strokeColor=#82b366;" vertex="1" parent="mvTbUv54LLQ37Vtnu26t-36">
          <mxGeometry x="47.25" y="269.99999999999994" width="105.5" height="16.88" as="geometry" />
        </mxCell>
        <mxCell id="mvTbUv54LLQ37Vtnu26t-40" value="Scratch Card" style="rounded=1;html=1;shadow=0;dashed=0;whiteSpace=wrap;fontSize=10;fillColor=#d5e8d4;align=center;strokeColor=#82b366;" vertex="1" parent="mvTbUv54LLQ37Vtnu26t-36">
          <mxGeometry x="47.25" y="299.99999999999994" width="105.5" height="16.88" as="geometry" />
        </mxCell>
        <mxCell id="mvTbUv54LLQ37Vtnu26t-41" value="Fortune Wheel" style="rounded=1;html=1;shadow=0;dashed=0;whiteSpace=wrap;fontSize=10;fillColor=#d5e8d4;align=center;strokeColor=#82b366;" vertex="1" parent="mvTbUv54LLQ37Vtnu26t-36">
          <mxGeometry x="47.25" y="329.99999999999994" width="105.5" height="16.88" as="geometry" />
        </mxCell>
        <mxCell id="mvTbUv54LLQ37Vtnu26t-42" value="" style="shape=image;html=1;verticalAlign=top;verticalLabelPosition=bottom;labelBackgroundColor=#ffffff;imageAspect=0;aspect=fixed;image=https://cdn0.iconfinder.com/data/icons/kameleon-free-pack/110/Euro-Coin-128.png" vertex="1" parent="mvTbUv54LLQ37Vtnu26t-36">
          <mxGeometry x="152.75" y="34" width="38" height="38" as="geometry" />
        </mxCell>
        <mxCell id="mvTbUv54LLQ37Vtnu26t-43" value="310 / 169.765" style="text;html=1;align=center;verticalAlign=middle;resizable=0;points=[];autosize=1;strokeWidth=2;fillColor=#f8cecc;strokeColor=#b85450;" vertex="1" parent="mvTbUv54LLQ37Vtnu26t-36">
          <mxGeometry x="85" y="205" width="90" height="20" as="geometry" />
        </mxCell>
        <mxCell id="mvTbUv54LLQ37Vtnu26t-44" value="" style="shape=image;html=1;verticalAlign=top;verticalLabelPosition=bottom;labelBackgroundColor=#ffffff;imageAspect=0;aspect=fixed;image=https://cdn2.iconfinder.com/data/icons/flat-ui-icons-24-px/24/menu-24-128.png" vertex="1" parent="mvTbUv54LLQ37Vtnu26t-36">
          <mxGeometry x="19.25" y="39" width="28" height="28" as="geometry" />
        </mxCell>
        <mxCell id="mvTbUv54LLQ37Vtnu26t-45" value="" style="shape=image;html=1;verticalAlign=top;verticalLabelPosition=bottom;labelBackgroundColor=#ffffff;imageAspect=0;aspect=fixed;image=https://cdn3.iconfinder.com/data/icons/shopping-and-retail-15/512/Crown-128.png" vertex="1" parent="mvTbUv54LLQ37Vtnu26t-36">
          <mxGeometry x="19.25" y="180" width="60" height="60" as="geometry" />
        </mxCell>
        <mxCell id="mvTbUv54LLQ37Vtnu26t-46" value="" style="html=1;verticalLabelPosition=bottom;align=center;labelBackgroundColor=#ffffff;verticalAlign=top;strokeWidth=2;strokeColor=#0080F0;shadow=0;dashed=0;shape=mxgraph.ios7.icons.user;" vertex="1" parent="mvTbUv54LLQ37Vtnu26t-36">
          <mxGeometry x="70" y="67" width="63" height="63" as="geometry" />
        </mxCell>
        <mxCell id="mvTbUv54LLQ37Vtnu26t-47" value="" style="shape=rect;strokeColor=#d6b656;fillColor=#fff2cc;shadow=0;" vertex="1" parent="1">
          <mxGeometry x="2200" y="-220" width="164" height="220" as="geometry" />
        </mxCell>
        <mxCell id="mvTbUv54LLQ37Vtnu26t-48" value="Language" style="shape=rect;strokeColor=#d6b656;fontSize=10;resizeWidth=1;align=left;spacingLeft=25;spacingTop=2;fillColor=#fff2cc;" vertex="1" parent="mvTbUv54LLQ37Vtnu26t-47">
          <mxGeometry width="164" height="20" relative="1" as="geometry" />
        </mxCell>
        <mxCell id="mvTbUv54LLQ37Vtnu26t-49" value="" style="shape=rect;rounded=1;rSize=3;strokeColor=none;fillColor=#FF9501;" vertex="1" parent="mvTbUv54LLQ37Vtnu26t-48">
          <mxGeometry y="0.5" width="15" height="15" relative="1" as="geometry">
            <mxPoint x="5" y="-7.5" as="offset" />
          </mxGeometry>
        </mxCell>
        <mxCell id="mvTbUv54LLQ37Vtnu26t-50" value="" style="shape=mxgraph.ios7.misc.right;strokeColor=#666666;" vertex="1" parent="mvTbUv54LLQ37Vtnu26t-48">
          <mxGeometry x="1" y="0.5" width="5" height="10" relative="1" as="geometry">
            <mxPoint x="-15" y="-5" as="offset" />
          </mxGeometry>
        </mxCell>
        <mxCell id="mvTbUv54LLQ37Vtnu26t-51" value="LeaderBoard" style="shape=rect;strokeColor=#d6b656;fontSize=10;resizeWidth=1;align=left;spacingLeft=25;spacingTop=2;fillColor=#fff2cc;" vertex="1" parent="mvTbUv54LLQ37Vtnu26t-47">
          <mxGeometry width="164" height="20" relative="1" as="geometry">
            <mxPoint y="20" as="offset" />
          </mxGeometry>
        </mxCell>
        <mxCell id="mvTbUv54LLQ37Vtnu26t-52" value="" style="shape=rect;rounded=1;rSize=3;strokeColor=none;fillColor=#FF3B2F;" vertex="1" parent="mvTbUv54LLQ37Vtnu26t-51">
          <mxGeometry y="0.5" width="15" height="15" relative="1" as="geometry">
            <mxPoint x="5" y="-7.5" as="offset" />
          </mxGeometry>
        </mxCell>
        <mxCell id="mvTbUv54LLQ37Vtnu26t-53" value="" style="shape=mxgraph.ios7.misc.right;strokeColor=#666666;" vertex="1" parent="mvTbUv54LLQ37Vtnu26t-51">
          <mxGeometry x="1" y="0.5" width="5" height="10" relative="1" as="geometry">
            <mxPoint x="-15" y="-5" as="offset" />
          </mxGeometry>
        </mxCell>
        <mxCell id="mvTbUv54LLQ37Vtnu26t-54" value="Settings" style="shape=rect;strokeColor=#d6b656;fontSize=10;resizeWidth=1;align=left;spacingLeft=25;spacingTop=2;fillColor=#fff2cc;" vertex="1" parent="mvTbUv54LLQ37Vtnu26t-47">
          <mxGeometry width="164" height="20" relative="1" as="geometry">
            <mxPoint y="40" as="offset" />
          </mxGeometry>
        </mxCell>
        <mxCell id="mvTbUv54LLQ37Vtnu26t-55" value="" style="shape=rect;rounded=1;rSize=3;strokeColor=none;fillColor=#4CDA64;" vertex="1" parent="mvTbUv54LLQ37Vtnu26t-54">
          <mxGeometry y="0.5" width="15" height="15" relative="1" as="geometry">
            <mxPoint x="5" y="-7.5" as="offset" />
          </mxGeometry>
        </mxCell>
        <mxCell id="mvTbUv54LLQ37Vtnu26t-56" value="" style="shape=mxgraph.ios7.misc.right;strokeColor=#666666;" vertex="1" parent="mvTbUv54LLQ37Vtnu26t-54">
          <mxGeometry x="1" y="0.5" width="5" height="10" relative="1" as="geometry">
            <mxPoint x="-15" y="-5" as="offset" />
          </mxGeometry>
        </mxCell>
        <mxCell id="mvTbUv54LLQ37Vtnu26t-57" value="Terms and Conditions" style="shape=rect;strokeColor=#d6b656;fontSize=10;resizeWidth=1;align=left;spacingLeft=25;spacingTop=2;fillColor=#fff2cc;" vertex="1" parent="mvTbUv54LLQ37Vtnu26t-47">
          <mxGeometry width="164" height="20" relative="1" as="geometry">
            <mxPoint y="60" as="offset" />
          </mxGeometry>
        </mxCell>
        <mxCell id="mvTbUv54LLQ37Vtnu26t-58" value="" style="shape=rect;rounded=1;rSize=3;strokeColor=none;fillColor=#007AFF;" vertex="1" parent="mvTbUv54LLQ37Vtnu26t-57">
          <mxGeometry y="0.5" width="15" height="15" relative="1" as="geometry">
            <mxPoint x="5" y="-7.5" as="offset" />
          </mxGeometry>
        </mxCell>
        <mxCell id="mvTbUv54LLQ37Vtnu26t-59" value="" style="shape=mxgraph.ios7.misc.right;strokeColor=#666666;" vertex="1" parent="mvTbUv54LLQ37Vtnu26t-57">
          <mxGeometry x="1" y="0.5" width="5" height="10" relative="1" as="geometry">
            <mxPoint x="-15" y="-5" as="offset" />
          </mxGeometry>
        </mxCell>
        <mxCell id="mvTbUv54LLQ37Vtnu26t-60" value="Share Friends" style="shape=rect;strokeColor=#d6b656;fontSize=10;resizeWidth=1;align=left;spacingLeft=25;spacingTop=2;fillColor=#fff2cc;" vertex="1" parent="mvTbUv54LLQ37Vtnu26t-47">
          <mxGeometry width="164" height="20" relative="1" as="geometry">
            <mxPoint y="80" as="offset" />
          </mxGeometry>
        </mxCell>
        <mxCell id="mvTbUv54LLQ37Vtnu26t-61" value="" style="shape=rect;rounded=1;rSize=3;strokeColor=none;fillColor=#5855D6;" vertex="1" parent="mvTbUv54LLQ37Vtnu26t-60">
          <mxGeometry y="0.5" width="15" height="15" relative="1" as="geometry">
            <mxPoint x="5" y="-7.5" as="offset" />
          </mxGeometry>
        </mxCell>
        <mxCell id="mvTbUv54LLQ37Vtnu26t-62" value="" style="shape=mxgraph.ios7.misc.right;strokeColor=#666666;" vertex="1" parent="mvTbUv54LLQ37Vtnu26t-60">
          <mxGeometry x="1" y="0.5" width="5" height="10" relative="1" as="geometry">
            <mxPoint x="-15" y="-5" as="offset" />
          </mxGeometry>
        </mxCell>
        <mxCell id="mvTbUv54LLQ37Vtnu26t-63" value="Verification" style="shape=rect;strokeColor=#d6b656;fontSize=10;resizeWidth=1;align=left;spacingLeft=25;spacingTop=2;fillColor=#fff2cc;" vertex="1" parent="mvTbUv54LLQ37Vtnu26t-47">
          <mxGeometry width="164" height="20" relative="1" as="geometry">
            <mxPoint y="100" as="offset" />
          </mxGeometry>
        </mxCell>
        <mxCell id="mvTbUv54LLQ37Vtnu26t-64" value="" style="shape=rect;rounded=1;rSize=3;strokeColor=none;fillColor=#8F8E94;" vertex="1" parent="mvTbUv54LLQ37Vtnu26t-63">
          <mxGeometry y="0.5" width="15" height="15" relative="1" as="geometry">
            <mxPoint x="5" y="-7.5" as="offset" />
          </mxGeometry>
        </mxCell>
        <mxCell id="mvTbUv54LLQ37Vtnu26t-65" value="" style="shape=mxgraph.ios7.misc.right;strokeColor=#666666;" vertex="1" parent="mvTbUv54LLQ37Vtnu26t-63">
          <mxGeometry x="1" y="0.5" width="5" height="10" relative="1" as="geometry">
            <mxPoint x="-15" y="-5" as="offset" />
          </mxGeometry>
        </mxCell>
        <mxCell id="mvTbUv54LLQ37Vtnu26t-66" style="edgeStyle=orthogonalEdgeStyle;rounded=0;orthogonalLoop=1;jettySize=auto;html=1;entryX=0.5;entryY=1;entryDx=0;entryDy=0;" edge="1" parent="1" source="mvTbUv54LLQ37Vtnu26t-44" target="mvTbUv54LLQ37Vtnu26t-47">
          <mxGeometry relative="1" as="geometry" />
        </mxCell>
        <mxCell id="mvTbUv54LLQ37Vtnu26t-67" value="&lt;h1 align=&quot;center&quot;&gt;Coin Rules&lt;br&gt;&lt;/h1&gt;&lt;p align=&quot;center&quot;&gt;Lorem ipsum dolor sit amet, consectetur adipisicing elit, sed do eiusmod tempor incididunt ut labore et dolore magna aliqua.&lt;/p&gt;" style="text;html=1;strokeColor=#b85450;fillColor=#f8cecc;spacing=5;spacingTop=-20;whiteSpace=wrap;overflow=hidden;rounded=0;" vertex="1" parent="1">
          <mxGeometry x="2640" y="-219.99999999999994" width="160" height="170" as="geometry" />
        </mxCell>
        <mxCell id="mvTbUv54LLQ37Vtnu26t-68" style="edgeStyle=orthogonalEdgeStyle;rounded=0;orthogonalLoop=1;jettySize=auto;html=1;entryX=0.5;entryY=1;entryDx=0;entryDy=0;" edge="1" parent="1" source="mvTbUv54LLQ37Vtnu26t-42" target="mvTbUv54LLQ37Vtnu26t-67">
          <mxGeometry relative="1" as="geometry" />
        </mxCell>
        <mxCell id="mvTbUv54LLQ37Vtnu26t-69" style="edgeStyle=orthogonalEdgeStyle;rounded=0;orthogonalLoop=1;jettySize=auto;html=1;" edge="1" parent="1" source="mvTbUv54LLQ37Vtnu26t-29" target="mvTbUv54LLQ37Vtnu26t-37">
          <mxGeometry relative="1" as="geometry" />
        </mxCell>
      </root>
    </mxGraphModel>
  </diagram>
</mxfile>
